<mxfile host="app.diagrams.net" modified="2021-02-16T19:17:31.492Z" agent="5.0 (Windows NT 10.0; Win64; x64) AppleWebKit/537.36 (KHTML, like Gecko) Chrome/88.0.4324.150 Safari/537.36" etag="ksdRthw125U7ypmIi36_" version="14.3.2" type="github">
  <diagram id="EVDzG1w7e8bliyg-ReT9" name="Page-1">
    <mxGraphModel dx="1248" dy="677" grid="1" gridSize="10" guides="1" tooltips="1" connect="1" arrows="1" fold="1" page="1" pageScale="1" pageWidth="827" pageHeight="1169" math="0" shadow="0">
      <root>
        <mxCell id="0" />
        <mxCell id="1" parent="0" />
        <mxCell id="zhr03bNOQasvk7op2p-V-3" value="" style="edgeStyle=orthogonalEdgeStyle;rounded=0;orthogonalLoop=1;jettySize=auto;html=1;" parent="1" source="zhr03bNOQasvk7op2p-V-1" edge="1">
          <mxGeometry relative="1" as="geometry">
            <mxPoint x="414" y="310" as="targetPoint" />
          </mxGeometry>
        </mxCell>
        <mxCell id="zhr03bNOQasvk7op2p-V-1" value="Inicio" style="ellipse;whiteSpace=wrap;html=1;" parent="1" vertex="1">
          <mxGeometry x="354" y="200" width="120" height="80" as="geometry" />
        </mxCell>
        <mxCell id="zhr03bNOQasvk7op2p-V-5" value="" style="edgeStyle=orthogonalEdgeStyle;rounded=0;orthogonalLoop=1;jettySize=auto;html=1;" parent="1" source="zhr03bNOQasvk7op2p-V-2" edge="1">
          <mxGeometry relative="1" as="geometry">
            <mxPoint x="414" y="390" as="targetPoint" />
          </mxGeometry>
        </mxCell>
        <mxCell id="zhr03bNOQasvk7op2p-V-2" value="PI=3.1416" style="html=1;strokeWidth=1;shape=manualInput;whiteSpace=wrap;rounded=1;size=26;arcSize=11;" parent="1" vertex="1">
          <mxGeometry x="364" y="300" width="100" height="60" as="geometry" />
        </mxCell>
        <mxCell id="zhr03bNOQasvk7op2p-V-8" value="" style="edgeStyle=orthogonalEdgeStyle;rounded=0;orthogonalLoop=1;jettySize=auto;html=1;" parent="1" source="zhr03bNOQasvk7op2p-V-4" target="zhr03bNOQasvk7op2p-V-6" edge="1">
          <mxGeometry relative="1" as="geometry" />
        </mxCell>
        <mxCell id="zhr03bNOQasvk7op2p-V-4" value="Leer r" style="shape=parallelogram;perimeter=parallelogramPerimeter;whiteSpace=wrap;html=1;fixedSize=1;rounded=1;strokeWidth=1;arcSize=11;" parent="1" vertex="1">
          <mxGeometry x="354" y="390" width="120" height="60" as="geometry" />
        </mxCell>
        <mxCell id="zhr03bNOQasvk7op2p-V-10" value="" style="edgeStyle=orthogonalEdgeStyle;rounded=0;orthogonalLoop=1;jettySize=auto;html=1;" parent="1" source="zhr03bNOQasvk7op2p-V-6" target="zhr03bNOQasvk7op2p-V-9" edge="1">
          <mxGeometry relative="1" as="geometry" />
        </mxCell>
        <mxCell id="zhr03bNOQasvk7op2p-V-6" value="V=3/4*PI*r^3" style="rounded=1;whiteSpace=wrap;html=1;" parent="1" vertex="1">
          <mxGeometry x="354" y="480" width="120" height="60" as="geometry" />
        </mxCell>
        <mxCell id="zhr03bNOQasvk7op2p-V-12" value="" style="edgeStyle=orthogonalEdgeStyle;rounded=0;orthogonalLoop=1;jettySize=auto;html=1;" parent="1" source="zhr03bNOQasvk7op2p-V-9" target="zhr03bNOQasvk7op2p-V-11" edge="1">
          <mxGeometry relative="1" as="geometry" />
        </mxCell>
        <mxCell id="zhr03bNOQasvk7op2p-V-9" value="V" style="strokeWidth=1;html=1;shape=mxgraph.flowchart.display;whiteSpace=wrap;" parent="1" vertex="1">
          <mxGeometry x="364" y="570" width="100" height="60" as="geometry" />
        </mxCell>
        <mxCell id="zhr03bNOQasvk7op2p-V-11" value="Fin" style="ellipse;whiteSpace=wrap;html=1;strokeWidth=1;" parent="1" vertex="1">
          <mxGeometry x="354" y="660" width="120" height="80" as="geometry" />
        </mxCell>
        <mxCell id="zhr03bNOQasvk7op2p-V-13" value="&lt;font style=&quot;font-size: 14px&quot;&gt;Ejercicio en clase&lt;br&gt;Natalie Camila Murillo Alcócer&lt;/font&gt;" style="text;html=1;strokeColor=none;fillColor=none;align=center;verticalAlign=middle;whiteSpace=wrap;rounded=0;" parent="1" vertex="1">
          <mxGeometry x="600" y="1070" width="200" height="20" as="geometry" />
        </mxCell>
        <mxCell id="M0GctPcFaFXLoIQQvS_s-1" value="&lt;h1 style=&quot;text-align: justify&quot;&gt;Diagramas de flujo en clase&lt;/h1&gt;&lt;span style=&quot;color: rgb(45 , 59 , 69) ; font-family: &amp;#34;latoweb&amp;#34; , &amp;#34;lato extended&amp;#34; , &amp;#34;lato&amp;#34; , &amp;#34;helvetica neue&amp;#34; , &amp;#34;helvetica&amp;#34; , &amp;#34;arial&amp;#34; , sans-serif ; background-color: rgb(255 , 255 , 255)&quot;&gt;&lt;div style=&quot;text-align: justify&quot;&gt;&lt;span style=&quot;font-size: 14px&quot;&gt;Algoritmo que dado el radio de una esfera, cálcule el su volumen&lt;/span&gt;&lt;/div&gt;&lt;/span&gt;&lt;p style=&quot;text-align: justify&quot;&gt;.&lt;/p&gt;" style="text;html=1;strokeColor=none;fillColor=none;spacing=5;spacingTop=-20;whiteSpace=wrap;overflow=hidden;rounded=0;" vertex="1" parent="1">
          <mxGeometry x="50" y="60" width="230" height="120" as="geometry" />
        </mxCell>
      </root>
    </mxGraphModel>
  </diagram>
</mxfile>
